<?xml version="1.0" standalone="no"?>
<!DOCTYPE svg PUBLIC "-//W3C//DTD SVG 20010904//EN"
 "http://www.w3.org/TR/2001/REC-SVG-20010904/DTD/svg10.dtd">
<svg version="1.0" xmlns="http://www.w3.org/2000/svg"
 width="512.000000pt" height="512.000000pt" viewBox="0 0 512.000000 512.000000"
 preserveAspectRatio="xMidYMid meet">

<g transform="translate(0.000000,512.000000) scale(0.100000,-0.100000)"
fill="#000000" stroke="none">
<path d="M0 2560 l0 -2560 2560 0 2560 0 0 1920 0 1920 -160 0 -160 0 0 -560
0 -560 -1040 0 -1040 0 0 1040 0 1040 560 0 560 0 0 160 0 160 -1920 0 -1920
0 0 -2560z m2400 1200 l0 -1040 -1040 0 -1040 0 0 1040 0 1040 1040 0 1040 0
0 -1040z m0 -2400 l0 -1040 -1040 0 -1040 0 0 1040 0 1040 1040 0 1040 0 0
-1040z m2400 0 l0 -1040 -1040 0 -1040 0 0 1040 0 1040 1040 0 1040 0 0 -1040z"/>
<path d="M1210 4394 c-111 -23 -224 -86 -311 -173 -251 -252 -252 -650 0 -901
253 -252 651 -253 901 -1 253 254 253 648 0 902 -155 156 -374 220 -590 173z"/>
<path d="M3620 1954 c-111 -23 -224 -86 -311 -173 -251 -252 -252 -650 0 -901
253 -252 651 -253 901 -1 253 254 253 648 0 902 -155 156 -374 220 -590 173z
m240 -229 c253 -66 382 -348 264 -581 -33 -65 -121 -151 -187 -183 -230 -111
-508 20 -572 269 -77 297 198 572 495 495z"/>
<path d="M4160 4960 l0 -160 160 0 160 0 0 160 0 160 -160 0 -160 0 0 -160z"/>
<path d="M4800 4960 l0 -160 160 0 160 0 0 160 0 160 -160 0 -160 0 0 -160z"/>
<path d="M4800 4320 l0 -160 160 0 160 0 0 160 0 160 -160 0 -160 0 0 -160z"/>
</g>
</svg>
